inDegrees=yes
name=ik_S47_A07_T02
DataType=double
version=3
OpenSimVersion=4.3-2021-08-27-4bc7ad9
endheader
time	pelvis_tilt	pelvis_list	pelvis_rotation	pelvis_tx	pelvis_ty	pelvis_tz	hip_flexion_r	hip_adduction_r	hip_rotation_r	knee_angle_r	knee_angle_r_beta	ankle_angle_r	subtalar_angle_r	mtp_angle_r	hip_flexion_l	hip_adduction_l	hip_rotation_l	knee_angle_l	knee_angle_l_beta	ankle_angle_l	subtalar_angle_l	mtp_angle_l	lumbar_extension	lumbar_bending	lumbar_rotation	arm_flex_r	arm_add_r	arm_rot_r	elbow_flex_r	pro_sup_r	wrist_flex_r	wrist_dev_r	arm_flex_l	arm_add_l	arm_rot_l	elbow_flex_l	pro_sup_l	wrist_flex_l	wrist_dev_l
17.31999999999972	-15.03289670973101	-7.05375558328798	22.18710314106644	0	0.9399999999999999	0	40.1677395217062	-10.38648553154495	-10.06920307551914	52.34681979687775	0.9136243584036661	0	0	0	40.1677395217062	-10.38648553154495	-10.06920307551914	52.34681979687775	0.9136243584036661	0	0	0	-15.19243094715684	-3.576545233642301	6.313267091712857	85.91589420914794	9.715305965871847	24.23245739584275	30.94419974455741	72.69947096585423	0	0	43.03202448383714	-3.688110220968384	18.23347366029725	34.36427985367182	91.76053509615174	0	0
17.33999999999972	-15.03748720825635	-7.041844670424446	22.15347647172805	0	0.9399999999999999	0	40.16910412503602	-10.38610903706687	-10.0691597125188	52.3473242949154	0.9136331635554928	0	0	0	40.16910412503602	-10.38610903706687	-10.0691597125188	52.3473242949154	0.9136331635554928	0	0	0	-15.18850737735167	-3.574466892683428	6.348329123369137	85.9934540265977	9.646533456802231	24.20044197878919	30.80242101955201	73.13846089973732	0	0	43.00839379404902	-3.682050615301907	18.26528547519586	34.39806868501169	91.76896627727895	0	0
17.35999999999972	-15.02914662975839	-7.037202439806954	22.13552340835804	0	0.9399999999999999	0	40.16947780576673	-10.38601032346469	-10.06914817222132	52.34746807918723	0.9136356730644489	0	0	0	40.16947780576673	-10.38601032346469	-10.06914817222132	52.34746807918723	0.9136356730644489	0	0	0	-15.1783808275433	-3.57521633699736	6.352950241467978	86.04916234195788	9.622853757552432	24.29844659563846	30.76370250821629	73.21515063022747	0	0	42.97858892589273	-3.734204140155359	18.28812973972305	34.3809281677958	91.79055118185724	0	0
17.37999999999972	-15.03144084806472	-7.007916420627831	22.1291288990078	0	0.9399999999999999	0	40.17071764822916	-10.38567053169868	-10.06910894457267	52.34792921042666	0.9136437213228608	0	0	0	40.17071764822916	-10.38567053169868	-10.06910894457267	52.34792921042666	0.9136437213228608	0	0	0	-15.16913137487643	-3.548832030900808	6.359793421240032	86.04598361003632	9.598072793338753	24.59813117534539	30.47183105705435	73.58355494144794	0	0	42.9489899457505	-3.68829053101091	18.29281241322301	34.36064774039254	91.80815754221378	0	0
17.39999999999972	-15.01155338020516	-6.987595287751553	22.13129123730319	0	0.9399999999999999	0	40.17202194500013	-10.38531161193268	-10.06906756136492	52.34841215983411	0.9136521503801414	0	0	0	40.17202194500013	-10.38531161193268	-10.06906756136492	52.34841215983411	0.9136521503801414	0	0	0	-15.14579817459206	-3.529966576756356	6.33527992459787	85.97053351387399	9.623357464880115	24.96771925992613	30.33769696805169	73.48499915051453	0	0	42.9013381422621	-3.694258499201343	18.30193619829176	34.32240536201451	91.81359521813016	0	0
17.41999999999972	-15.00057143305631	-6.978826743406877	22.15694494901677	0	0.9399999999999999	0	40.17414105415888	-10.38472553101834	-10.06900009003239	52.34919237998204	0.9136657677906131	0	0	0	40.17414105415888	-10.38472553101834	-10.06900009003239	52.34919237998204	0.9136657677906131	0	0	0	-15.13533141724784	-3.517159058042146	6.306939018790272	85.85629848621225	9.650216896927015	25.3826336976201	30.14200066553638	73.17205356060913	0	0	42.91360303338849	-3.688321687884922	18.33246929657508	34.28480516713746	91.82302062885529	0	0
17.43999999999972	-14.98245711786711	-6.966017524780676	22.18200224065498	0	0.9399999999999999	0	40.17511120129669	-10.38446070897417	-10.06896946205335	52.34955375478534	0.9136720749707644	0	0	0	40.17511120129669	-10.38446070897417	-10.06896946205335	52.34955375478534	0.9136720749707644	0	0	0	-15.11683990697163	-3.503269755360986	6.278085461045761	85.72839521514906	9.689514540493384	25.65825695914664	30.01711577082679	72.89756243995878	0	0	42.93422836349116	-3.682444607711603	18.32190712853617	34.23783493523539	91.80975295482253	0	0
17.45999999999972	-14.95129090569875	-6.934514441347257	22.1724046832955	0	0.9399999999999999	0	40.16758588412002	-10.38735293965617	-10.06926227328821	52.34700781007349	0.9136276398529689	0	0	0	40.16758588412002	-10.38735293965617	-10.06926227328821	52.34700781007349	0.9136276398529689	0	0	0	-15.07568277297953	-3.486498959715698	6.273876146203496	85.66202383861605	9.711188767036896	25.80549220512352	29.79582271757807	72.61944624226635	0	0	42.9023767275438	-3.660398270459249	18.28365023045787	34.12210570176988	91.84359899960641	0	0
17.47999999999972	-14.92950050371456	-6.915034295991124	22.19245009659359	0	0.9399999999999999	0	40.17497199691189	-10.38726848779155	-10.06914926634697	52.35016074236106	0.9136826689024794	0	0	0	40.17497199691189	-10.38726848779155	-10.06914926634697	52.35016074236106	0.9136826689024794	0	0	0	-15.05181662658801	-3.468254052430319	6.253968430335926	85.62089501520315	9.734376677786653	25.87017882207406	29.62113762036831	72.03890419659784	0	0	42.84354849462034	-3.649829630831851	18.27203207822583	34.1456905496317	91.85821279527222	0	0
17.49999999999972	-14.93371061214938	-6.90697032486008	22.17994020844031	0	0.9399999999999999	0	40.17528963317562	-10.38718476372752	-10.06913948743069	52.35028367748065	0.9136848145250827	9.372891969451043e-54	0	0	40.17528963317562	-10.38718476372752	-10.06913948743069	52.35028367748065	0.9136848145250827	9.372891969451043e-54	0	0	-15.05178673077564	-3.461926731922801	6.265360524317416	85.50700275734003	9.722929957591102	25.75144014027111	29.63265738988534	72.0055152652578	0	0	42.90189182756951	-3.625857490747501	18.23527204292453	34.13303756524303	91.86714067552005	0	0
17.51999999999972	-14.90568141921566	-6.891337595985903	22.21825472225753	0	0.9399999999999999	0	40.17684822082565	-10.38675681260909	-10.06909019618143	52.35086461104146	0.913694953728454	0	0	0	40.17684822082565	-10.38675681260909	-10.06909019618143	52.35086461104146	0.913694953728454	0	0	0	-15.01826178591996	-3.463724936145267	6.281698960414696	85.42410379937265	9.680169896805447	25.72729183114162	29.90309004757398	71.79103423143427	0	0	42.94086059990862	-3.543997491381349	18.31690366678704	33.94765746911875	91.90008078898825	0	0
17.53999999999971	-14.89303717456286	-6.879880404658612	22.30217867794648	0	0.9399999999999999	0	40.17912023968285	-10.38612683756456	-10.0690178645943	52.35170294073879	0.9137095853418897	0	0	0	40.17912023968285	-10.38612683756456	-10.0690178645943	52.35170294073879	0.9137095853418897	0	0	0	-15.00405856739004	-3.453940690512564	6.275444082407986	85.01496950521529	9.666575880659288	25.52876201474644	30.83714493747253	70.93610413669221	0	0	42.95030854052543	-3.462652662771808	18.39934745262215	33.88421527460293	91.89275758710859	0	0
17.55999999999971	-14.87472610030803	-6.889650529467118	22.41473453914297	0	0.9399999999999999	0	40.18100347979045	-10.38560713808614	-10.06895808814588	52.35240039998098	0.9137217583020644	0	0	0	40.18100347979045	-10.38560713808614	-10.06895808814588	52.35240039998098	0.9137217583020644	0	0	0	-14.99329401211286	-3.462389752422157	6.257292428846568	84.26085948364295	9.611175681921708	25.2021939659448	32.53141201354271	69.94991612007991	0	0	42.99006702116355	-3.397912827662121	18.51656266970438	33.82272100084299	91.84978667595522	0	0
17.57999999999971	-14.8687618013374	-6.897983186417219	22.39575307794632	0	0.9399999999999999	0	40.18303788218762	-10.38504404370347	-10.06889337460558	52.35315104259408	0.9137348594871687	0	0	0	40.18303788218762	-10.38504404370347	-10.06889337460558	52.35315104259408	0.9137348594871687	0	0	0	-14.98207819238957	-3.490177518272712	6.326456444130081	83.13540284867277	9.466138409434137	24.4128995725493	34.37105966659223	70.46134696120296	0	0	43.0164405378682	-3.333825517326582	18.52315604613632	33.80281350159645	91.84545340853781	0	0
17.59999999999971	-14.85929540619514	-6.908983889294197	22.36605271591847	0	0.9399999999999999	0	40.18533827497444	-10.38440811649571	-10.06882024671752	52.35400006907033	0.913749677794616	0	0	0	40.18533827497444	-10.38440811649571	-10.06882024671752	52.35400006907033	0.913749677794616	0	0	0	-14.95848283881305	-3.546562839069158	6.482351162231482	81.71634486860916	9.29877849400658	22.63847097615197	37.78294308039632	71.92514900012048	0	0	43.0535193556203	-3.226473210095365	18.56829769958933	33.78160888778371	91.80939556887223	0	0
17.61999999999971	-14.8314657355965	-6.918618768757277	22.22815033215343	0	0.9399999999999999	0	40.30217762887249	-10.36307406032307	-10.0659414913667	52.41107194795418	0.9147457699914385	0	0	0	40.30217762887249	-10.36307406032307	-10.0659414913667	52.41107194795418	0.9147457699914385	0	0	0	-14.92409634384712	-3.628444844054175	6.759460155227468	80.25304005598002	8.946037575656279	20.25711909219111	41.87490080326247	74.22048069349836	0	0	43.05438705564714	-3.099077052088918	18.54704702938123	33.80380526651219	91.80527371061955	0	0
17.63999999999971	-14.8098616086533	-6.941531098822932	22.10949081186346	0	0.9399999999999999	0	40.41930371273738	-10.34244186666323	-10.06311249185964	52.46849095030508	0.9157479206356721	0	0	0	40.41930371273738	-10.34244186666323	-10.06311249185964	52.46849095030508	0.9157479206356721	0	0	0	-14.88628211626344	-3.758453202599883	7.144740682971451	78.9019738330003	8.162609440402154	17.9569898044448	46.25641296375088	76.20890484350684	0	0	43.10696268529615	-2.92999965930094	18.55080666056658	33.69466311713261	92.06091390082118	0	0
17.65999999999971	-14.80228907466005	-6.915657822498299	21.86655320448377	0	0.9399999999999999	0	40.42111500575738	-10.34197342332273	-10.06305700182235	52.46916343705922	0.9157596577437079	0	0	0	40.42111500575738	-10.34197342332273	-10.06305700182235	52.46916343705922	0.9157596577437079	0	0	0	-14.82653447324121	-3.852288139207468	7.507572165675722	77.33512251984769	7.195659618239338	16.10438432616201	49.48045682614561	77.77915318376166	0	0	43.12038094071492	-2.761332821475831	18.32779539239058	33.5761744904253	92.24709105242512	0	0
17.67999999999971	-14.80869951105277	-6.883751347089549	21.42433860551386	0	0.9399999999999999	0	40.42381843092441	-10.34127444303461	-10.06297417872196	52.47016639442079	0.9157771626519244	0	0	0	40.42381843092441	-10.34127444303461	-10.06297417872196	52.47016639442079	0.9157771626519244	0	0	0	-14.76887700497678	-3.955453071741596	7.952275563901234	75.50042953535817	6.053643850194999	14.69047941815167	54.37298514670314	79.55464983942512	0	0	43.14429927439045	-2.629680190397243	17.9430064709124	33.52141782752287	92.42712104211932	0	0
17.69999999999971	-14.7936055535679	-6.814694786253392	20.71584544113246	0	0.9399999999999999	0	40.42597560342268	-10.34072160846218	-10.06290845718395	52.47097232076724	0.9157912287201986	0	0	0	40.42597560342268	-10.34072160846218	-10.06290845718395	52.47097232076724	0.9157912287201986	0	0	0	-14.63688220123416	-4.122271086444205	8.681513023530698	73.29427521579099	4.614700328938572	13.7172506966264	61.21847915910944	83.03273976418137	0	0	43.01329567134714	-2.570260795075242	17.93672243409617	33.52590412423699	92.3015804568557	0	0
